<svg id="Layer_1" data-name="Layer 1" xmlns="http://www.w3.org/2000/svg" viewBox="0 0 40.16 36.07"><defs><style>.cls-1,.cls-2,.cls-3,.cls-4{fill:none;stroke-miterlimit:10;stroke-width:3px;}.cls-1{stroke:#38c610;}.cls-2{stroke:#fff53e;}.cls-3{stroke:#b75818;}.cls-4{stroke:#ce2c2c;}.cls-5{fill:#edc258;}</style></defs><title>Asset 2</title><path class="cls-1" d="M1.43,23.15l3.5,2.36a2.35,2.35,0,0,0,.45.22,3.45,3.45,0,0,0,1.91,0,1.9,1.9,0,0,0,.64-.31l2-1.67a3.28,3.28,0,0,1,3,.23l1.66,1a3.36,3.36,0,0,0,3.72-.2l.2-.16a3.33,3.33,0,0,1,4,0h0a3.36,3.36,0,0,0,4,0l.35-.27A3.32,3.32,0,0,1,30.3,24l2.53,1.26a3.39,3.39,0,0,0,3.2-.13l3.43-2.07" transform="translate(-0.42 -1.04)"/><path class="cls-2" d="M1.43,20.15l3.5,2.36a2.35,2.35,0,0,0,.45.22,3.45,3.45,0,0,0,1.91,0,1.9,1.9,0,0,0,.64-.31l2-1.67a3.28,3.28,0,0,1,3,.23l1.66,1a3.36,3.36,0,0,0,3.72-.2l.2-.16a3.33,3.33,0,0,1,4,0h0a3.36,3.36,0,0,0,4,0l.35-.27A3.32,3.32,0,0,1,30.3,21l2.53,1.26a3.39,3.39,0,0,0,3.2-.13l3.43-2.07" transform="translate(-0.42 -1.04)"/><path class="cls-3" d="M2.06,17.15,5.5,19.51a2.35,2.35,0,0,0,.45.22,3.31,3.31,0,0,0,1.87,0,1.77,1.77,0,0,0,.63-.31l2-1.67a3.17,3.17,0,0,1,2.9.23L15,19a3.26,3.26,0,0,0,3.66-.2l.2-.16a3.23,3.23,0,0,1,3.93,0h0a3.26,3.26,0,0,0,3.93,0l.35-.27A3.21,3.21,0,0,1,30.45,18l2.49,1.26a3.28,3.28,0,0,0,3.14-.13l3.38-2.07" transform="translate(-0.42 -1.04)"/><path class="cls-4" d="M1.43,25.17l3.5,3.17a1.82,1.82,0,0,0,.45.29,2.53,2.53,0,0,0,1.91,0,1.49,1.49,0,0,0,.64-.41l2-2.25a2.6,2.6,0,0,1,3,.31l1.66,1.35a2.67,2.67,0,0,0,3.72-.27l.2-.22a2.69,2.69,0,0,1,4,0h0a2.69,2.69,0,0,0,4,0l.35-.36a2.65,2.65,0,0,1,3.49-.43L32.83,28a2.63,2.63,0,0,0,3.2-.17l3.43-2.78" transform="translate(-0.42 -1.04)"/><path class="cls-5" d="M1.16,27.11H39.7a.73.73,0,0,1,.73.73v1.63a7.64,7.64,0,0,1-7.64,7.64H8.07A7.64,7.64,0,0,1,.43,29.47V27.84A.72.72,0,0,1,1.16,27.11Z" transform="translate(-0.42 -1.04)"/><path class="cls-5" d="M10.89,1H30.25A10.32,10.32,0,0,1,40.57,11.36v6.05A1.62,1.62,0,0,1,39,19H2.19A1.62,1.62,0,0,1,.57,17.42V11.36A10.32,10.32,0,0,1,10.89,1Z" transform="translate(-0.42 -1.04)"/><circle cx="33.39" cy="9.19" r="0.65"/><circle cx="20.34" cy="9.19" r="0.65"/><circle cx="14.18" cy="4.51" r="0.65"/><circle cx="27.3" cy="4.51" r="0.65"/><circle cx="7.32" cy="9.19" r="0.65"/></svg>